HIERARCHY
ROOT Hips
{
	OFFSET 39.591534 25.081974 40.528454
	CHANNELS 6 Xposition Yposition Zposition Zrotation Yrotation Xrotation
	JOINT LHipJoint
	{
		OFFSET 41.285133 48.300682 58.487160
		CHANNELS 3 Zrotation Yrotation Xrotation
		JOINT LeftUpLeg
		{
			OFFSET 69.084137 69.397369 68.976311
			CHANNELS 3 Zrotation Yrotation Xrotation
			JOINT LeftLeg
			{
				OFFSET 70.466385 67.477409 74.638466
				CHANNELS 3 Zrotation Yrotation Xrotation
				JOINT LeftFoot
				{
					OFFSET 82.997711 99.574066 103.115181
					CHANNELS 3 Zrotation Yrotation Xrotation
					JOINT LeftToeBase
					{
						OFFSET 103.427246 102.055145 96.678925
						CHANNELS 3 Zrotation Yrotation Xrotation
						End Site
						{
							OFFSET 0.000000 0.000000 0.000000
						}
					}
				}
			}
		}
	}
	JOINT RHipJoint
	{
		OFFSET 95.577629 92.211319 99.627052
		CHANNELS 3 Zrotation Yrotation Xrotation
		JOINT RightUpLeg
		{
			OFFSET 94.196899 99.956032 97.151489
			CHANNELS 3 Zrotation Yrotation Xrotation
			JOINT RightLeg
			{
				OFFSET 100.360397 92.690544 96.061386
				CHANNELS 3 Zrotation Yrotation Xrotation
				JOINT RightFoot
				{
					OFFSET 89.749733 83.819496 77.300545
					CHANNELS 3 Zrotation Yrotation Xrotation
					JOINT RightToeBase
					{
						OFFSET 79.026047 88.478737 78.513931
						CHANNELS 3 Zrotation Yrotation Xrotation
						End Site
						{
							OFFSET 0.000000 0.000000 0.000000
						}
					}
				}
			}
		}
	}
	JOINT LowerBack
	{
		OFFSET 95.461365 103.951561 124.235313
		CHANNELS 3 Zrotation Yrotation Xrotation
		JOINT Spine
		{
			OFFSET 132.772751 139.660065 147.127945
			CHANNELS 3 Zrotation Yrotation Xrotation
			JOINT Spine1
			{
				OFFSET 148.692566 141.857239 154.470184
				CHANNELS 3 Zrotation Yrotation Xrotation
				JOINT Neck
				{
					OFFSET 159.849106 160.322479 145.126831
					CHANNELS 3 Zrotation Yrotation Xrotation
					JOINT Neck1
					{
						OFFSET 153.138321 165.719666 159.083008
						CHANNELS 3 Zrotation Yrotation Xrotation
						JOINT Head
						{
							OFFSET 143.429932 118.138466 120.736473
							CHANNELS 3 Zrotation Yrotation Xrotation
							End Site
							{
								OFFSET 0.000000 0.000000 0.000000
							}
						}
					}
				}
				JOINT LeftShoulder
				{
					OFFSET 110.313072 100.866310 111.057938
					CHANNELS 3 Zrotation Yrotation Xrotation
					JOINT LeftArm
					{
						OFFSET 123.372620 118.148201 95.530304
						CHANNELS 3 Zrotation Yrotation Xrotation
						JOINT LeftForeArm
						{
							OFFSET 121.167191 138.886246 117.631569
							CHANNELS 3 Zrotation Yrotation Xrotation
							JOINT LeftHand
							{
								OFFSET 136.100647 88.792320 84.720955
								CHANNELS 3 Zrotation Yrotation Xrotation
								JOINT LeftFingerBase
								{
									OFFSET 98.001282 100.812698 110.409180
									CHANNELS 3 Zrotation Yrotation Xrotation
									JOINT LeftHandIndex1
									{
										OFFSET 126.620468 94.602776 60.871269
										CHANNELS 3 Zrotation Yrotation Xrotation
										End Site
										{
											OFFSET 0.000000 0.000000 0.000000
										}
									}
								}
								JOINT LThumb
								{
									OFFSET 80.566925 74.686890 89.179871
									CHANNELS 3 Zrotation Yrotation Xrotation
									End Site
									{
										OFFSET 0.000000 0.000000 0.000000
									}
								}
							}
						}
					}
				}
				JOINT RightShoulder
				{
					OFFSET 96.400154 86.699333 72.346947
					CHANNELS 3 Zrotation Yrotation Xrotation
					JOINT RightArm
					{
						OFFSET 64.937805 79.285843 60.862595
						CHANNELS 3 Zrotation Yrotation Xrotation
						JOINT RightForeArm
						{
							OFFSET 35.190960 33.503517 33.789814
							CHANNELS 3 Zrotation Yrotation Xrotation
							JOINT RightHand
							{
								OFFSET 29.576426 29.599720 34.789848
								CHANNELS 3 Zrotation Yrotation Xrotation
								JOINT RightFingerBase
								{
									OFFSET 35.021786 50.072353 43.445091
									CHANNELS 3 Zrotation Yrotation Xrotation
									JOINT RightHandIndex1
									{
										OFFSET 47.612507 52.859894 54.761589
										CHANNELS 3 Zrotation Yrotation Xrotation
										End Site
										{
											OFFSET 0.000000 0.000000 0.000000
										}
									}
								}
								JOINT RThumb
								{
									OFFSET 56.735897 44.281616 49.939335
									CHANNELS 3 Zrotation Yrotation Xrotation
									End Site
									{
										OFFSET 44.418232 36.029530 44.514984
									}
								}
							}
						}
					}
				}
			}
		}
	}
}
MOTION
Frames: 11
Frame Time: 0.008333
-4.996343 13.835740 -83.634102 -34.600700 -67.728004 -88.276054 -60.288307 -15.571325 -36.056843 -204.431824 -28.447422 -201.060791 -47.915459 -80.902000 -142.740387 -37.236206 -223.921341 -217.895355 -19.529417 -57.471661 -146.057739 -116.833221 -52.970753 -63.773384 -241.890076 -110.340027 -375.020477 -80.020912 -112.085205 -45.666492 -49.173676 -69.513054 1.336325 -1.294602 41.908596 76.024338 -24.274977 -96.222260 65.758316 -3.922188 -39.888073 -119.049850 -8.870603 -40.838821 -121.267944 -160.818253 -137.122711 -97.779999 -45.919609 -99.742249 -57.207733 -52.234131 -44.233467 -103.243561 -85.197899 -30.480297 -33.912285 -223.803070 -49.839676 -572.458740 -454.383942 -177.805801 -43.196968 -10.805931 -11.270515 -235.410034 -47.607670 -198.351288 -512.568970 -7.125000 0.000000 0.000000 61.119690 -230.888168 -371.221130 -27.962488 47.811726 45.516346 225.804977 -25.612276 172.336075 25.203243 42.101456 23.933678 1.063133 0.714031 42.618851 276.156677 239.135422 30.332829 7.125000 0.000000 0.000000 3.057688 -93.515137 57.320442
3.310125 16.823854 58.425625 -3.842485 -12.213496 -33.775040 -4.442124 14.059689 5.753525 -105.374001 77.618279 -26.736298 2.290703 -20.215668 71.986130 8.033303 -23.584948 -30.095739 -0.294885 17.847187 108.670410 -33.047089 -11.531930 5.398684 -4.175655 108.257469 -21.809906 -3.283716 -25.833698 186.315109 0.005743 40.011753 125.194824 7.279790 72.982178 285.048462 27.388233 -58.238785 139.716995 36.841145 50.589218 -24.371881 73.915764 27.444780 30.138098 -20.468060 -22.778097 56.875366 13.497714 23.109684 109.925934 25.367704 13.229005 13.809723 27.385704 67.316818 -4.126466 -48.169971 240.182251 -115.842613 -129.717484 34.644409 176.468979 2.411409 21.757174 233.420013 145.214310 15.522732 -394.567780 -7.125000 0.000000 0.000000 255.999390 19.805412 -80.199585 -14.032855 46.922062 43.144680 208.816833 -40.930050 131.780792 17.923008 29.606964 20.449726 1.298027 2.770995 76.433403 411.098175 301.338898 183.607498 7.125000 0.000000 0.000000 161.152710 -10.369640 274.362000
15.327630 18.573992 142.320862 10.468278 32.438549 7.168067 30.386984 34.934002 37.507607 -24.500923 162.582138 101.026978 40.856979 17.962646 212.343140 38.996601 134.000549 146.050034 18.907095 70.289307 284.674805 8.877544 6.480025 27.265007 55.972038 142.538971 13.616327 13.895574 -0.411713 301.566620 29.576563 122.609634 233.148865 18.440031 118.330795 405.872467 49.095150 -57.810936 148.340134 36.278187 35.025005 -47.968727 50.180340 5.813147 -12.481219 -40.195946 -35.671383 39.162395 7.479829 28.090446 130.492828 48.842434 26.743587 41.809330 51.762878 79.796005 0.081110 -1.129570 324.438141 98.287262 5.543997 113.077408 236.372574 4.693192 27.617756 305.333557 183.791077 171.223923 -305.835602 -7.125000 0.000000 0.000000 402.558716 151.373871 22.832865 19.007847 65.201958 49.296326 251.283615 -10.024476 193.958969 63.225811 57.972256 50.109573 5.313691 6.255698 113.900040 451.716217 315.470398 259.638641 7.125000 0.000000 0.000000 221.412415 3.775726 269.569061
1.026477 13.819173 -16.694500 -34.624535 -53.729908 -77.465965 -39.432201 -1.514903 -15.755267 -171.371719 12.430149 -170.937469 -30.973846 -68.381470 -57.861870 -29.667610 -179.163193 -241.481720 -17.202967 -69.366264 -138.458771 -152.011749 -66.488243 -72.516037 -265.945312 -120.547226 -406.287140 -83.056999 -119.537140 -145.588593 -94.432930 -252.653625 -251.710190 -32.435074 -63.981884 -288.964661 -105.647583 -196.787628 -47.926823 -37.545418 -113.084709 -189.057007 -66.837570 -62.965042 -161.093964 -170.192154 -148.183578 -137.098816 -66.428940 -127.126564 -84.625671 -58.827141 -51.199730 -87.169312 -69.651955 -33.671967 -36.150093 -229.878693 -107.923981 -521.877197 -474.094543 -188.674789 -75.083641 -14.088160 -14.399146 -327.382385 -133.948807 -300.303131 -665.308350 -7.125000 0.000000 0.000000 -382.433136 -470.124420 -826.645508 -59.368244 8.539906 24.815191 70.854469 -278.922516 -366.658722 -177.049683 -117.774483 -99.348351 -13.299720 -15.248335 -214.306396 -610.463440 -183.291016 -783.997864 7.125000 0.000000 0.000000 -857.022400 -548.583252 -825.831787
2.343851 13.079651 -59.525448 -47.506077 -87.782555 -126.091805 -83.125122 -30.186613 -55.797165 -278.838684 -99.060471 -361.676453 -83.741722 -142.724579 -303.009674 -76.424652 -384.960663 -467.445038 -37.203274 -160.518814 -413.555298 -232.747116 -103.663940 -130.070419 -472.969025 -307.081146 -722.322510 -159.943436 -212.703629 -419.411957 -170.864212 -446.383698 -505.036896 -55.933380 -146.444443 -626.959351 -161.687668 -252.646622 -128.897903 -78.179596 -199.769897 -287.652405 -158.466949 -138.550491 -356.491913 -360.333527 -305.737427 -353.591431 -156.136276 -324.019653 -361.267090 -190.749420 -138.418335 -248.650436 -223.768494 -170.865280 -80.792053 -525.807068 -689.655823 -1488.195190 -1165.067139 -609.349304 -474.099854 -32.417015 -57.557117 -973.013000 -439.546448 -829.607117 -1022.025146 -7.125000 0.000000 0.000000 -766.614258 -839.167114 -1276.442627 -83.154060 4.243525 29.011414 122.233139 -182.501724 -162.109222 -55.446457 -32.258652 -16.497913 -3.695087 -4.070280 -41.243523 3.865295 96.486275 -177.995270 7.125000 0.000000 0.000000 -163.688522 -222.138367 -50.292091
8.675373 17.083258 131.362305 11.459442 32.929001 -0.728092 34.914089 31.407396 32.239574 -37.380707 161.977722 114.624802 48.191067 28.066132 298.696533 53.617546 159.587891 147.800217 25.749928 79.260353 363.353912 42.665485 22.077265 55.314915 125.756683 224.716843 144.250473 50.647522 39.153416 407.236237 34.546379 180.754883 276.012360 21.074419 134.213135 386.525543 80.131577 -49.877083 207.913727 70.000320 92.845314 14.102150 109.039803 78.058273 113.887215 73.505821 52.794746 132.911865 37.822166 88.676689 179.751419 80.082634 56.013123 98.008301 109.869301 117.692566 13.733291 97.178146 470.129486 400.122375 208.328339 227.558945 346.347961 13.718504 47.611382 430.428864 237.127396 190.522659 -297.237366 -7.125000 0.000000 0.000000 611.696838 323.277954 183.132141 64.279358 95.352707 54.418697 278.092957 -60.349609 29.694361 -4.265610 -10.227436 -6.628865 -2.538147 -4.426161 -59.021912 -91.803894 50.078033 -289.422485 7.125000 0.000000 0.000000 -280.525848 -292.065796 -207.009781
10.277050 16.429653 94.547112 -7.153765 9.584578 -30.055035 12.930521 22.639292 20.214693 -76.721931 120.944435 7.016701 20.543169 -19.845047 122.593155 15.906894 11.073612 -55.028183 4.387446 -18.062012 27.375282 -68.456779 -27.441332 -12.771946 -96.078033 26.488873 -173.240448 -31.654873 -57.503620 111.230392 -40.275642 3.945753 33.751579 1.971112 63.979877 104.847588 16.426434 -111.444214 114.217796 21.901257 -0.419454 -88.060936 23.191254 16.419701 -30.825077 -58.666458 -58.800911 -33.007957 -28.210182 -43.104996 -4.185760 -9.855714 -7.512534 -12.454062 -1.171459 19.930973 -19.147606 -132.579437 4.459218 -445.137085 -387.300934 -191.182159 -87.618492 -10.405050 -8.140858 -232.438675 -104.700531 -351.086334 -717.754028 -7.125000 0.000000 0.000000 -259.989899 -423.401794 -775.735840 -28.461418 30.582733 36.042042 158.697556 -140.531342 -141.342896 -34.163719 -1.926233 17.340279 3.717949 4.678700 95.715126 449.931213 300.729492 198.572952 7.125000 0.000000 0.000000 65.693832 -92.209877 290.544983
12.631557 18.440752 212.936478 28.613546 77.614365 22.422754 59.101219 41.165092 41.249886 -28.155399 178.596558 108.906570 51.104420 26.602543 297.014343 55.814259 200.123322 207.842270 34.424294 118.577690 486.107056 95.763817 43.872967 86.314583 219.530991 298.166229 276.276123 77.773422 74.951653 532.311584 61.392422 320.371155 424.168732 43.900314 207.684952 646.399841 146.363144 9.138823 312.191101 110.507690 181.367599 98.916656 188.036942 136.207001 216.859589 147.378250 105.051170 181.136475 56.694378 141.662567 246.528976 118.415375 85.163467 161.486404 155.496475 169.358017 30.955389 217.330338 667.325378 644.575134 452.999329 336.707886 452.279083 20.239859 63.573177 750.196106 359.095581 421.827545 -153.652954 -7.125000 0.000000 0.000000 702.006592 396.425873 272.618439 71.777695 88.025055 50.813667 248.096588 -26.081305 49.730286 40.670856 56.474831 33.528484 4.695957 4.603236 105.416771 483.659119 302.479828 170.552155 7.125000 0.000000 0.000000 334.730438 30.187283 406.509583
8.153074 14.497921 45.138512 -10.846479 -1.424652 -56.788425 1.430828 21.942602 18.726971 -77.616798 132.884109 22.567970 17.978640 -29.688725 119.976585 18.630705 59.270382 -9.002886 13.504338 24.337845 178.103714 -10.297731 -7.312712 11.118984 -6.445354 117.071358 -6.782189 10.200091 -11.142140 259.911041 -6.537077 111.762703 133.679932 18.575178 113.478958 288.240997 57.868015 -75.787910 159.421814 40.465614 37.686687 -52.637009 57.001987 27.902920 -9.634741 -25.468697 -27.407442 39.778130 -4.807310 12.383154 84.278488 18.784672 3.696008 20.059048 10.034264 56.864765 -5.953352 -23.508575 236.472366 -115.087105 -77.744713 13.973106 152.607407 1.083387 20.828281 140.204071 66.747696 -83.701614 -517.252747 -7.125000 0.000000 0.000000 -104.710442 -293.784363 -596.290527 -16.568565 43.353222 39.440727 181.583221 -48.440125 52.436203 2.691140 27.833622 -1.131639 0.238784 -2.188734 -5.779812 130.091629 150.531296 -114.775803 7.125000 0.000000 0.000000 -6.585535 -117.964615 31.645664
13.303969 16.894138 161.958328 25.181124 66.867058 6.831124 58.283390 53.194893 60.264286 17.195307 230.788467 197.358337 66.306206 21.682915 293.613831 52.603695 217.359283 128.533859 27.768229 78.589874 358.007172 46.647701 16.317282 39.787872 80.025963 184.585999 98.402054 29.745312 9.041692 307.930725 4.996847 157.083267 193.821518 24.125294 119.715981 316.327026 71.784683 -49.301441 203.358978 63.679173 80.399536 1.504662 115.099770 75.587791 93.437920 48.679283 22.848240 75.907211 0.256771 23.321133 114.245529 32.963108 16.897308 43.238235 19.588156 52.625717 -9.674371 -42.365456 219.526733 -181.524796 -134.298843 16.329388 186.903824 4.635958 34.685219 401.387299 205.520386 168.994324 -311.157898 -7.125000 0.000000 0.000000 511.200653 224.092529 44.025883 43.936420 81.908257 48.807522 233.765732 30.425999 246.330093 102.451935 110.845665 79.716736 11.377984 11.189077 198.497406 718.809387 406.193787 412.103455 7.125000 0.000000 0.000000 498.975250 155.826538 668.610168
7.772411 13.830374 14.902188 -10.675709 -13.849127 -78.882423 -25.205597 7.120620 -4.896892 -142.022980 69.308411 -76.670364 -1.594893 -57.641094 41.486580 3.483823 16.456160 -113.409409 4.903566 1.670156 119.664566 -31.269058 -20.041838 -12.431704 -100.571152 38.270775 -112.773529 -8.782907 -23.967712 269.776611 -6.499485 73.326164 65.632256 8.436799 51.139919 107.725578 35.410854 -80.017036 146.263229 56.722168 69.910271 -15.073926 105.471962 67.530228 87.463692 41.607906 27.813829 124.079308 22.934521 93.197006 217.725464 93.592247 63.753799 129.715820 106.983780 128.437653 15.567702 106.811920 497.328033 291.617798 189.559387 242.312286 430.227997 15.420547 64.863197 741.340393 345.320740 335.646271 -217.018631 -7.125000 0.000000 0.000000 649.952515 407.558502 319.606964 63.288830 91.437431 51.219063 245.241867 -14.369953 75.266388 -32.534344 10.747725 -24.845692 -4.313332 -7.299129 -79.601768 -182.364166 18.363749 -363.983612 7.125000 0.000000 0.000000 -204.854736 -227.824860 -208.819809
